<svg id="visual" viewBox="0 0 960 540" width="960" height="540" xmlns="http://www.w3.org/2000/svg" xmlns:xlink="http://www.w3.org/1999/xlink" version="1.1"><rect x="0" y="0" width="960" height="540" fill="#FFFFFF"></rect><path d="M511 0L435 0L435 68L494 68L494 135L576 135L576 203L449 203L449 270L515 270L515 338L475 338L475 405L568 405L568 473L468 473L468 540L0 540L0 473L0 473L0 405L0 405L0 338L0 338L0 270L0 270L0 203L0 203L0 135L0 135L0 68L0 68L0 0L0 0Z" fill="#4facf7"></path><path d="M365 0L310 0L310 68L436 68L436 135L362 135L362 203L297 203L297 270L386 270L386 338L312 338L312 405L454 405L454 473L331 473L331 540L0 540L0 473L0 473L0 405L0 405L0 338L0 338L0 270L0 270L0 203L0 203L0 135L0 135L0 68L0 68L0 0L0 0Z" fill="#00a9d5"></path><path d="M216 0L326 0L326 68L316 68L316 135L207 135L207 203L232 203L232 270L203 270L203 338L201 338L201 405L229 405L229 473L328 473L328 540L0 540L0 473L0 473L0 405L0 405L0 338L0 338L0 270L0 270L0 203L0 203L0 135L0 135L0 68L0 68L0 0L0 0Z" fill="#00a1ab"></path><path d="M141 0L143 0L143 68L86 68L86 135L81 135L81 203L196 203L196 270L137 270L137 338L107 338L107 405L112 405L112 473L157 473L157 540L0 540L0 473L0 473L0 405L0 405L0 338L0 338L0 270L0 270L0 203L0 203L0 135L0 135L0 68L0 68L0 0L0 0Z" fill="#009473"></path></svg>