<svg id="visual" viewBox="0 0 960 540" width="960" height="540" xmlns="http://www.w3.org/2000/svg" xmlns:xlink="http://www.w3.org/1999/xlink" version="1.1"><rect x="0" y="0" width="960" height="540" fill="#FFFFFF"></rect><defs><linearGradient id="grad1_0" x1="43.8%" y1="100%" x2="100%" y2="0%"><stop offset="14.444444444444446%" stop-color="#ffffff" stop-opacity="1"></stop><stop offset="85.55555555555554%" stop-color="#ffffff" stop-opacity="1"></stop></linearGradient></defs><defs><linearGradient id="grad2_0" x1="0%" y1="100%" x2="56.3%" y2="0%"><stop offset="14.444444444444446%" stop-color="#ffffff" stop-opacity="1"></stop><stop offset="85.55555555555554%" stop-color="#ffffff" stop-opacity="1"></stop></linearGradient></defs><g transform="translate(960, 540)"><path d="M-324 0C-279.9 -17.2 -235.8 -34.5 -234.7 -62.9C-233.7 -91.3 -275.7 -130.9 -280.6 -162C-285.5 -193.1 -253.2 -215.6 -215.7 -215.7C-178.1 -215.7 -135.3 -193.4 -110 -190.5C-84.7 -187.7 -77 -204.4 -61.6 -229.9C-46.2 -255.4 -23.1 -289.7 0 -324L0 0Z" fill="#715DF2"></path></g><g transform="translate(0, 0)"><path d="M324 0C320.9 27.5 317.8 54.9 313 83.9C308.1 112.8 301.5 143.2 278 160.5C254.5 177.8 214.2 182.1 183.1 183.1C152.1 184.1 130.2 181.8 115.5 200.1C100.8 218.3 93.4 257 75.3 281.1C57.3 305.2 28.6 314.6 0 324L0 0Z" fill="#715DF2"></path></g></svg>